<?xml version="1.0" encoding="utf-8"?>
<svg viewBox="148.5292 119.1834 187.6149 187.6148" xmlns="http://www.w3.org/2000/svg">
    <path style="stroke: rgb(0, 0, 0); fill: rgb(231, 231, 231);"
        d="M 183.937 213.887 C 179.452 218.371 174.35 221.918 169.34 225.259 C 167.28 226.632 166.493 229.643 164.418 231.199 C 160.401 234.211 155.555 238.742 153.215 243.42 C 152.476 244.898 153.933 246.042 154.404 246.984 C 155.757 249.691 158.213 251.642 160.514 253.943 C 162.218 255.647 163.239 257.696 164.418 260.053 C 165.284 261.785 167.814 263.111 169.17 264.466 C 172.706 268.002 176.782 272.079 180.372 275.669 C 181.696 276.993 183.783 277.722 185.125 279.063 C 186.597 280.535 187.66 282.622 189.708 283.646 C 190.836 284.21 193.134 285.269 193.442 286.192 C 194.191 288.441 192.919 291.949 194.799 293.83 C 196.009 295.04 198.447 295.102 199.722 296.376 C 202.445 299.099 204.634 299.71 208.887 301.128 C 209.622 301.373 211.896 301.66 212.621 301.298 C 214.585 300.316 215.125 297.648 216.016 295.867 C 216.682 294.534 218.353 292.863 219.41 291.454 C 220.455 290.061 222.681 288.877 224.163 287.889 C 229.099 284.598 233.868 280.73 237.911 276.687 C 239.466 275.133 242.776 269.952 241.475 267.352 C 238.859 262.12 232.006 260.214 228.576 255.641 C 224.992 250.862 220.097 245.804 215.846 241.553 C 211.399 237.106 208.37 231.025 202.268 227.974 C 201.175 227.428 200.783 226.129 199.722 225.598 C 196.064 223.77 193.762 218.879 190.726 216.603 C 189.792 215.902 186.769 214.735 185.634 214.735 C 185.376 214.735 184.106 214.904 183.937 214.735 C 183.737 214.535 184.22 213.887 183.937 213.887 Z"
        transform="matrix(1, 0, 0, 1, 1.1368683772161603e-13, -2.842170943040401e-14)" />
    <path style="stroke: rgb(0, 0, 0); fill: rgb(255, 71, 71);"
        d="M 181.051 209.068 L 245.719 273.057 L 333.012 185.471 L 271.07 122.063 L 181.051 209.068 Z"
        transform="matrix(1, 0, 0, 1, 1.1368683772161603e-13, -2.842170943040401e-14)" />
    <g
        transform="matrix(0.3664350509643555, 0, 0, 0.3664350509643555, 148.5292990882591, 119.18342004989714)"
        style="">
        <g>
            <path
                d="M509.607,173.926L338.073,2.393C336.542,0.861,334.463,0,332.297,0s-4.245,0.861-5.777,2.393L87.126,241.787 c-3.191,3.191-3.191,8.364,0,11.554l1.926,1.926L2.393,341.926c-3.191,3.191-3.191,8.364,0,11.554l156.127,156.127 c1.595,1.595,3.686,2.393,5.777,2.393c2.09,0,4.182-0.797,5.777-2.393l86.659-86.659l1.926,1.926 c1.595,1.595,3.686,2.393,5.777,2.393c2.09,0,4.182-0.797,5.777-2.393L509.607,185.48c1.533-1.532,2.393-3.61,2.393-5.777 S511.139,175.458,509.607,173.926z M332.297,19.725l34.664,34.663l-227.84,227.84l-32.732-32.732 c-0.011-0.011-1.931-1.931-1.931-1.931L332.297,19.725z M164.297,492.276L19.725,347.702l80.881-80.881l144.572,144.572 L164.297,492.276z M264.436,407.543l-1.921-1.921c-0.011-0.011-32.743-32.743-32.743-32.743l40.44-40.44 c3.191-3.191,3.191-8.364,0-11.554c-3.191-3.191-8.364-3.191-11.554,0l-40.44,40.44l-67.544-67.544l227.84-227.84l67.544,67.544 l-164.292,164.29c-3.191,3.191-3.191,8.364,0,11.554c1.595,1.596,3.686,2.393,5.777,2.393c2.091,0,4.182-0.797,5.777-2.393 l164.291-164.29l34.664,34.663L264.436,407.543z" />
        </g>
    </g>
</svg>